<svg viewBox="0 5 100 90" fill="none" xmlns="http://www.w3.org/2000/svg">
  <g fill="#7C5CFC">
    <rect x="30" y="25" width="10" height="15" rx="2" />
    <rect x="25" y="45" width="15" height="12" rx="2" />
    <rect x="30" y="62" width="10" height="20" rx="2" />
    <rect x="18" y="15" width="10" height="10" rx="2" />
    <rect x="8" y="32" width="12" height="12" rx="2" />
    <rect x="12" y="55" width="15" height="15" rx="3" />
    <rect x="4" y="75" width="8" height="8" rx="1.5" />
    <rect x="20" y="82" width="12" height="12" rx="2" />
    <rect x="2" y="48" width="6" height="6" rx="1" />
  </g>
  <g>
    <path d="M 38 10 H 60 C 85 10, 100 25, 100 50 C 100 75, 85 90, 60 90 H 38 V 10 Z" fill="#7C5CFC" />
    <path d="M 64 28 C 76.15 28 86 37.85 86 50 C 86 62.15 76.15 72 64 72 C 60 72 56.2 70.9 52.9 69 L 45 73 L 47.5 65 C 44 61 42 55.7 42 50 C 42 37.85 51.85 28 64 28 Z" fill="white" />
    <g stroke="#7C5CFC" strokeWidth="4" strokeLinecap="round" strokeLinejoin="round" fill="none">
      <path d="M 56 42 L 48 50 L 56 58" />
      <path d="M 72 42 L 80 50 L 72 58" />
      <path d="M 67 38 L 61 62" />
    </g>
  </g>
</svg>
