<svg viewBox="0 0 40 40" fill="none" xmlns="http://www.w3.org/2000/svg">
  <defs>
    <linearGradient id="cube-top" x1="0%" y1="0%" x2="100%" y2="100%">
      <stop offset="0%" stop-color="#A855F7" />
      <stop offset="100%" stop-color="#8B5CF6" />
    </linearGradient>
    <linearGradient id="cube-left" x1="0%" y1="0%" x2="0%" y2="100%">
      <stop offset="0%" stop-color="#7C3AED" />
      <stop offset="100%" stop-color="#4C1D95" />
    </linearGradient>
    <linearGradient id="cube-right" x1="0%" y1="0%" x2="0%" y2="100%">
      <stop offset="0%" stop-color="#3B82F6" />
      <stop offset="100%" stop-color="#1E40AF" />
    </linearGradient>
    <linearGradient id="d-grad" x1="0%" y1="0%" x2="100%" y2="100%">
      <stop offset="0%" stop-color="#FFFFFF" />
      <stop offset="100%" stop-color="#22D3EE" />
    </linearGradient>
  </defs>
  <polygon points="20,5 35,12.5 20,20 5,12.5" fill="url(#cube-top)" stroke="#C084FC" stroke-width="0.75" stroke-linejoin="round" />
  <polygon points="5,12.5 20,20 20,35 5,27.5" fill="url(#cube-left)" stroke="#A855F7" stroke-width="0.75" stroke-linejoin="round" />
  <polygon points="20,20 35,12.5 35,27.5 20,35" fill="url(#cube-right)" stroke="#60A5FA" stroke-width="0.75" stroke-linejoin="round" />
  <line x1="20" y1="20" x2="20" y2="35" stroke="#FFFFFF" stroke-opacity="0.3" stroke-width="1" />
  <line x1="20" y1="20" x2="5" y2="12.5" stroke="#FFFFFF" stroke-opacity="0.3" stroke-width="1" />
  <line x1="20" y1="20" x2="35" y2="12.5" stroke="#FFFFFF" stroke-opacity="0.3" stroke-width="1" />
  <path d="M 14 11 V 29 M 14 11 H 20 A 9 9 0 0 1 20 29 H 14" stroke="url(#d-grad)" stroke-width="3.5" stroke-linecap="round" stroke-linejoin="round" />
</svg>
